<svg width="28" height="28" viewBox="0 0 28 28" fill="none" xmlns="http://www.w3.org/2000/svg">
<path d="M16.6797 14C16.6797 15.48 15.48 16.6797 14 16.6797C12.52 16.6797 11.3203 15.48 11.3203 14C11.3203 12.52 12.52 11.3203 14 11.3203C15.48 11.3203 16.6797 12.52 16.6797 14Z" fill="black"/>
<path d="M20.2669 9.259C20.1381 8.90994 19.9326 8.59399 19.6656 8.33466C19.4063 8.06763 19.0905 7.86212 18.7412 7.73331C18.458 7.62329 18.0324 7.49234 17.2487 7.45667C16.4008 7.418 16.1466 7.40967 14.0001 7.40967C11.8534 7.40967 11.5992 7.41779 10.7515 7.45645C9.96777 7.49234 9.54202 7.62329 9.25897 7.73331C8.9097 7.86212 8.59375 8.06763 8.33462 8.33466C8.06759 8.59399 7.86209 8.90973 7.73306 9.259C7.62305 9.54227 7.4921 9.96802 7.45642 10.7518C7.41776 11.5995 7.40942 11.8537 7.40942 14.0004C7.40942 16.1469 7.41776 16.4011 7.45642 17.2489C7.4921 18.0327 7.62305 18.4583 7.73306 18.7415C7.86209 19.0908 8.06738 19.4065 8.33441 19.6659C8.59375 19.9329 8.90948 20.1384 9.25875 20.2672C9.54202 20.3774 9.96777 20.5084 10.7515 20.5441C11.5992 20.5827 11.8532 20.5909 13.9999 20.5909C16.1468 20.5909 16.401 20.5827 17.2485 20.5441C18.0322 20.5084 18.458 20.3774 18.7412 20.2672C19.4424 19.9968 19.9965 19.4426 20.2669 18.7415C20.377 18.4583 20.5079 18.0327 20.5438 17.2489C20.5825 16.4011 20.5906 16.1469 20.5906 14.0004C20.5906 11.8537 20.5825 11.5995 20.5438 10.7518C20.5081 9.96802 20.3772 9.54227 20.2669 9.259ZM14.0001 18.1282C11.7201 18.1282 9.87185 16.2802 9.87185 14.0002C9.87185 11.7202 11.7201 9.8721 14.0001 9.8721C16.2799 9.8721 18.1281 11.7202 18.1281 14.0002C18.1281 16.2802 16.2799 18.1282 14.0001 18.1282ZM18.2914 10.6736C17.7586 10.6736 17.3266 10.2417 17.3266 9.70889C17.3266 9.17612 17.7586 8.74417 18.2914 8.74417C18.8241 8.74417 19.2561 9.17612 19.2561 9.70889C19.2559 10.2417 18.8241 10.6736 18.2914 10.6736Z" fill="black"/>
<path d="M14 0C6.2692 0 0 6.2692 0 14C0 21.7308 6.2692 28 14 28C21.7308 28 28 21.7308 28 14C28 6.2692 21.7308 0 14 0ZM21.9906 17.3144C21.9517 18.1701 21.8156 18.7544 21.6169 19.2658C21.1993 20.3457 20.3457 21.1993 19.2658 21.6169C18.7546 21.8156 18.1701 21.9515 17.3146 21.9906C16.4573 22.0297 16.1834 22.0391 14.0002 22.0391C11.8168 22.0391 11.5431 22.0297 10.6856 21.9906C9.83008 21.9515 9.24561 21.8156 8.73441 21.6169C8.19778 21.4151 7.71201 21.0987 7.31039 20.6896C6.90152 20.2882 6.58514 19.8022 6.38327 19.2658C6.1846 18.7546 6.04852 18.1701 6.00964 17.3146C5.97012 16.4571 5.96094 16.1832 5.96094 14C5.96094 11.8168 5.97012 11.5429 6.00943 10.6856C6.04831 9.82986 6.18417 9.24561 6.38284 8.73419C6.58472 8.19778 6.90131 7.71179 7.31039 7.31039C7.71179 6.90131 8.19778 6.58493 8.73419 6.38306C9.24561 6.18439 9.82986 6.04852 10.6856 6.00943C11.5429 5.97034 11.8168 5.96094 14 5.96094C16.1832 5.96094 16.4571 5.97034 17.3144 6.00964C18.1701 6.04852 18.7544 6.18439 19.2658 6.38284C19.8022 6.58472 20.2882 6.90131 20.6898 7.31039C21.0987 7.71201 21.4153 8.19778 21.6169 8.73419C21.8158 9.24561 21.9517 9.82986 21.9908 10.6856C22.0299 11.5429 22.0391 11.8168 22.0391 14C22.0391 16.1832 22.0299 16.4571 21.9906 17.3144Z" fill="black"/>
</svg>
