<svg width="1400" height="3699" viewBox="0 0 1400 3699" fill="none" xmlns="http://www.w3.org/2000/svg">
<path d="M-20.0002 161.5C1369.5 1373 1342 73.9998 1638.5 12.4998C1935 -49.0002 2685 1455 1736 1480.5C787 1506 925 538.5 -174 824.5C-1273 1110.5 -1897 1690.5 -869.5 1946.5C158 2202.5 -104.5 1459.5 518.5 1421C1141.5 1382.5 1045 2162.5 1514 2213.5C1983 2264.5 2322 1391.5 2187.5 1976C2053 2560.5 1498 2970.5 792 3059C86 3147.5 -426 3040 -129.5 3296C167 3552 1269.5 3477 593 3738" stroke="url(#paint0_linear)" stroke-width="20"/>
<defs>
<linearGradient id="paint0_linear" x1="-702.997" y1="10.6635" x2="1886.81" y2="272.547" gradientUnits="userSpaceOnUse">
<stop stop-color="#A7DA7E"/>
<stop offset="1" stop-color="#ABE37E"/>
</linearGradient>
</defs>
</svg>
